%TF.GenerationSoftware,KiCad,Pcbnew,(5.1.6)-1*%
%TF.CreationDate,2021-08-21T15:03:11-07:00*%
%TF.ProjectId,BPEM488CWaux,4250454d-3438-4384-9357-6175782e6b69,rev?*%
%TF.SameCoordinates,Original*%
%TF.FileFunction,Legend,Bot*%
%TF.FilePolarity,Positive*%
%FSLAX46Y46*%
G04 Gerber Fmt 4.6, Leading zero omitted, Abs format (unit mm)*
G04 Created by KiCad (PCBNEW (5.1.6)-1) date 2021-08-21 15:03:11*
%MOMM*%
%LPD*%
G01*
G04 APERTURE LIST*
%ADD10C,0.150000*%
G04 APERTURE END LIST*
D10*
X134219247Y-58425771D02*
X134076390Y-58473390D01*
X134028771Y-58521009D01*
X133981152Y-58616247D01*
X133981152Y-58759104D01*
X134028771Y-58854342D01*
X134076390Y-58901961D01*
X134171628Y-58949580D01*
X134552580Y-58949580D01*
X134552580Y-57949580D01*
X134219247Y-57949580D01*
X134124009Y-57997200D01*
X134076390Y-58044819D01*
X134028771Y-58140057D01*
X134028771Y-58235295D01*
X134076390Y-58330533D01*
X134124009Y-58378152D01*
X134219247Y-58425771D01*
X134552580Y-58425771D01*
X133552580Y-58949580D02*
X133552580Y-57949580D01*
X133171628Y-57949580D01*
X133076390Y-57997200D01*
X133028771Y-58044819D01*
X132981152Y-58140057D01*
X132981152Y-58282914D01*
X133028771Y-58378152D01*
X133076390Y-58425771D01*
X133171628Y-58473390D01*
X133552580Y-58473390D01*
X132552580Y-58425771D02*
X132219247Y-58425771D01*
X132076390Y-58949580D02*
X132552580Y-58949580D01*
X132552580Y-57949580D01*
X132076390Y-57949580D01*
X131647819Y-58949580D02*
X131647819Y-57949580D01*
X131314485Y-58663866D01*
X130981152Y-57949580D01*
X130981152Y-58949580D01*
X130076390Y-58282914D02*
X130076390Y-58949580D01*
X130314485Y-57901961D02*
X130552580Y-58616247D01*
X129933533Y-58616247D01*
X129409723Y-58378152D02*
X129504961Y-58330533D01*
X129552580Y-58282914D01*
X129600200Y-58187676D01*
X129600200Y-58140057D01*
X129552580Y-58044819D01*
X129504961Y-57997200D01*
X129409723Y-57949580D01*
X129219247Y-57949580D01*
X129124009Y-57997200D01*
X129076390Y-58044819D01*
X129028771Y-58140057D01*
X129028771Y-58187676D01*
X129076390Y-58282914D01*
X129124009Y-58330533D01*
X129219247Y-58378152D01*
X129409723Y-58378152D01*
X129504961Y-58425771D01*
X129552580Y-58473390D01*
X129600200Y-58568628D01*
X129600200Y-58759104D01*
X129552580Y-58854342D01*
X129504961Y-58901961D01*
X129409723Y-58949580D01*
X129219247Y-58949580D01*
X129124009Y-58901961D01*
X129076390Y-58854342D01*
X129028771Y-58759104D01*
X129028771Y-58568628D01*
X129076390Y-58473390D01*
X129124009Y-58425771D01*
X129219247Y-58378152D01*
X128457342Y-58378152D02*
X128552580Y-58330533D01*
X128600200Y-58282914D01*
X128647819Y-58187676D01*
X128647819Y-58140057D01*
X128600200Y-58044819D01*
X128552580Y-57997200D01*
X128457342Y-57949580D01*
X128266866Y-57949580D01*
X128171628Y-57997200D01*
X128124009Y-58044819D01*
X128076390Y-58140057D01*
X128076390Y-58187676D01*
X128124009Y-58282914D01*
X128171628Y-58330533D01*
X128266866Y-58378152D01*
X128457342Y-58378152D01*
X128552580Y-58425771D01*
X128600200Y-58473390D01*
X128647819Y-58568628D01*
X128647819Y-58759104D01*
X128600200Y-58854342D01*
X128552580Y-58901961D01*
X128457342Y-58949580D01*
X128266866Y-58949580D01*
X128171628Y-58901961D01*
X128124009Y-58854342D01*
X128076390Y-58759104D01*
X128076390Y-58568628D01*
X128124009Y-58473390D01*
X128171628Y-58425771D01*
X128266866Y-58378152D01*
X127076390Y-58854342D02*
X127124009Y-58901961D01*
X127266866Y-58949580D01*
X127362104Y-58949580D01*
X127504961Y-58901961D01*
X127600200Y-58806723D01*
X127647819Y-58711485D01*
X127695438Y-58521009D01*
X127695438Y-58378152D01*
X127647819Y-58187676D01*
X127600200Y-58092438D01*
X127504961Y-57997200D01*
X127362104Y-57949580D01*
X127266866Y-57949580D01*
X127124009Y-57997200D01*
X127076390Y-58044819D01*
X126743057Y-57949580D02*
X126504961Y-58949580D01*
X126314485Y-58235295D01*
X126124009Y-58949580D01*
X125885914Y-57949580D01*
X124790676Y-58663866D02*
X124314485Y-58663866D01*
X124885914Y-58949580D02*
X124552580Y-57949580D01*
X124219247Y-58949580D01*
X123457342Y-58282914D02*
X123457342Y-58949580D01*
X123885914Y-58282914D02*
X123885914Y-58806723D01*
X123838295Y-58901961D01*
X123743057Y-58949580D01*
X123600200Y-58949580D01*
X123504961Y-58901961D01*
X123457342Y-58854342D01*
X123076390Y-58949580D02*
X122552580Y-58282914D01*
X123076390Y-58282914D02*
X122552580Y-58949580D01*
X138790676Y-60599580D02*
X138790676Y-59599580D01*
X138552580Y-59599580D01*
X138409723Y-59647200D01*
X138314485Y-59742438D01*
X138266866Y-59837676D01*
X138219247Y-60028152D01*
X138219247Y-60171009D01*
X138266866Y-60361485D01*
X138314485Y-60456723D01*
X138409723Y-60551961D01*
X138552580Y-60599580D01*
X138790676Y-60599580D01*
X137409723Y-60551961D02*
X137504961Y-60599580D01*
X137695438Y-60599580D01*
X137790676Y-60551961D01*
X137838295Y-60456723D01*
X137838295Y-60075771D01*
X137790676Y-59980533D01*
X137695438Y-59932914D01*
X137504961Y-59932914D01*
X137409723Y-59980533D01*
X137362104Y-60075771D01*
X137362104Y-60171009D01*
X137838295Y-60266247D01*
X136981152Y-60551961D02*
X136885914Y-60599580D01*
X136695438Y-60599580D01*
X136600200Y-60551961D01*
X136552580Y-60456723D01*
X136552580Y-60409104D01*
X136600200Y-60313866D01*
X136695438Y-60266247D01*
X136838295Y-60266247D01*
X136933533Y-60218628D01*
X136981152Y-60123390D01*
X136981152Y-60075771D01*
X136933533Y-59980533D01*
X136838295Y-59932914D01*
X136695438Y-59932914D01*
X136600200Y-59980533D01*
X136124009Y-60599580D02*
X136124009Y-59932914D01*
X136124009Y-59599580D02*
X136171628Y-59647200D01*
X136124009Y-59694819D01*
X136076390Y-59647200D01*
X136124009Y-59599580D01*
X136124009Y-59694819D01*
X135219247Y-59932914D02*
X135219247Y-60742438D01*
X135266866Y-60837676D01*
X135314485Y-60885295D01*
X135409723Y-60932914D01*
X135552580Y-60932914D01*
X135647819Y-60885295D01*
X135219247Y-60551961D02*
X135314485Y-60599580D01*
X135504961Y-60599580D01*
X135600200Y-60551961D01*
X135647819Y-60504342D01*
X135695438Y-60409104D01*
X135695438Y-60123390D01*
X135647819Y-60028152D01*
X135600200Y-59980533D01*
X135504961Y-59932914D01*
X135314485Y-59932914D01*
X135219247Y-59980533D01*
X134743057Y-59932914D02*
X134743057Y-60599580D01*
X134743057Y-60028152D02*
X134695438Y-59980533D01*
X134600200Y-59932914D01*
X134457342Y-59932914D01*
X134362104Y-59980533D01*
X134314485Y-60075771D01*
X134314485Y-60599580D01*
X133457342Y-60551961D02*
X133552580Y-60599580D01*
X133743057Y-60599580D01*
X133838295Y-60551961D01*
X133885914Y-60456723D01*
X133885914Y-60075771D01*
X133838295Y-59980533D01*
X133743057Y-59932914D01*
X133552580Y-59932914D01*
X133457342Y-59980533D01*
X133409723Y-60075771D01*
X133409723Y-60171009D01*
X133885914Y-60266247D01*
X132552580Y-60599580D02*
X132552580Y-59599580D01*
X132552580Y-60551961D02*
X132647819Y-60599580D01*
X132838295Y-60599580D01*
X132933533Y-60551961D01*
X132981152Y-60504342D01*
X133028771Y-60409104D01*
X133028771Y-60123390D01*
X132981152Y-60028152D01*
X132933533Y-59980533D01*
X132838295Y-59932914D01*
X132647819Y-59932914D01*
X132552580Y-59980533D01*
X131314485Y-60599580D02*
X131314485Y-59599580D01*
X131314485Y-59980533D02*
X131219247Y-59932914D01*
X131028771Y-59932914D01*
X130933533Y-59980533D01*
X130885914Y-60028152D01*
X130838295Y-60123390D01*
X130838295Y-60409104D01*
X130885914Y-60504342D01*
X130933533Y-60551961D01*
X131028771Y-60599580D01*
X131219247Y-60599580D01*
X131314485Y-60551961D01*
X130504961Y-59932914D02*
X130266866Y-60599580D01*
X130028771Y-59932914D02*
X130266866Y-60599580D01*
X130362104Y-60837676D01*
X130409723Y-60885295D01*
X130504961Y-60932914D01*
X128314485Y-60599580D02*
X128647819Y-60123390D01*
X128885914Y-60599580D02*
X128885914Y-59599580D01*
X128504961Y-59599580D01*
X128409723Y-59647200D01*
X128362104Y-59694819D01*
X128314485Y-59790057D01*
X128314485Y-59932914D01*
X128362104Y-60028152D01*
X128409723Y-60075771D01*
X128504961Y-60123390D01*
X128885914Y-60123390D01*
X127743057Y-60599580D02*
X127838295Y-60551961D01*
X127885914Y-60504342D01*
X127933533Y-60409104D01*
X127933533Y-60123390D01*
X127885914Y-60028152D01*
X127838295Y-59980533D01*
X127743057Y-59932914D01*
X127600200Y-59932914D01*
X127504961Y-59980533D01*
X127457342Y-60028152D01*
X127409723Y-60123390D01*
X127409723Y-60409104D01*
X127457342Y-60504342D01*
X127504961Y-60551961D01*
X127600200Y-60599580D01*
X127743057Y-60599580D01*
X126981152Y-60599580D02*
X126981152Y-59599580D01*
X126981152Y-59980533D02*
X126885914Y-59932914D01*
X126695438Y-59932914D01*
X126600200Y-59980533D01*
X126552580Y-60028152D01*
X126504961Y-60123390D01*
X126504961Y-60409104D01*
X126552580Y-60504342D01*
X126600200Y-60551961D01*
X126695438Y-60599580D01*
X126885914Y-60599580D01*
X126981152Y-60551961D01*
X125695438Y-60551961D02*
X125790676Y-60599580D01*
X125981152Y-60599580D01*
X126076390Y-60551961D01*
X126124009Y-60456723D01*
X126124009Y-60075771D01*
X126076390Y-59980533D01*
X125981152Y-59932914D01*
X125790676Y-59932914D01*
X125695438Y-59980533D01*
X125647819Y-60075771D01*
X125647819Y-60171009D01*
X126124009Y-60266247D01*
X125219247Y-60599580D02*
X125219247Y-59932914D01*
X125219247Y-60123390D02*
X125171628Y-60028152D01*
X125124009Y-59980533D01*
X125028771Y-59932914D01*
X124933533Y-59932914D01*
X124743057Y-59932914D02*
X124362104Y-59932914D01*
X124600200Y-59599580D02*
X124600200Y-60456723D01*
X124552580Y-60551961D01*
X124457342Y-60599580D01*
X124362104Y-60599580D01*
X123266866Y-60599580D02*
X123266866Y-59599580D01*
X123266866Y-60075771D02*
X122695438Y-60075771D01*
X122695438Y-60599580D02*
X122695438Y-59599580D01*
X122219247Y-60599580D02*
X122219247Y-59932914D01*
X122219247Y-59599580D02*
X122266866Y-59647200D01*
X122219247Y-59694819D01*
X122171628Y-59647200D01*
X122219247Y-59599580D01*
X122219247Y-59694819D01*
X121362104Y-60551961D02*
X121457342Y-60599580D01*
X121647819Y-60599580D01*
X121743057Y-60551961D01*
X121790676Y-60456723D01*
X121790676Y-60075771D01*
X121743057Y-59980533D01*
X121647819Y-59932914D01*
X121457342Y-59932914D01*
X121362104Y-59980533D01*
X121314485Y-60075771D01*
X121314485Y-60171009D01*
X121790676Y-60266247D01*
X120885914Y-60599580D02*
X120885914Y-59599580D01*
X120885914Y-59980533D02*
X120790676Y-59932914D01*
X120600200Y-59932914D01*
X120504961Y-59980533D01*
X120457342Y-60028152D01*
X120409723Y-60123390D01*
X120409723Y-60409104D01*
X120457342Y-60504342D01*
X120504961Y-60551961D01*
X120600200Y-60599580D01*
X120790676Y-60599580D01*
X120885914Y-60551961D01*
X119600200Y-60551961D02*
X119695438Y-60599580D01*
X119885914Y-60599580D01*
X119981152Y-60551961D01*
X120028771Y-60456723D01*
X120028771Y-60075771D01*
X119981152Y-59980533D01*
X119885914Y-59932914D01*
X119695438Y-59932914D01*
X119600200Y-59980533D01*
X119552580Y-60075771D01*
X119552580Y-60171009D01*
X120028771Y-60266247D01*
X119124009Y-60599580D02*
X119124009Y-59932914D01*
X119124009Y-60123390D02*
X119076390Y-60028152D01*
X119028771Y-59980533D01*
X118933533Y-59932914D01*
X118838295Y-59932914D01*
X118647819Y-59932914D02*
X118266866Y-59932914D01*
X118504961Y-59599580D02*
X118504961Y-60456723D01*
X118457342Y-60551961D01*
X118362104Y-60599580D01*
X118266866Y-60599580D01*
X131838295Y-61678152D02*
X131933533Y-61630533D01*
X131981152Y-61582914D01*
X132028771Y-61487676D01*
X132028771Y-61440057D01*
X131981152Y-61344819D01*
X131933533Y-61297200D01*
X131838295Y-61249580D01*
X131647819Y-61249580D01*
X131552580Y-61297200D01*
X131504961Y-61344819D01*
X131457342Y-61440057D01*
X131457342Y-61487676D01*
X131504961Y-61582914D01*
X131552580Y-61630533D01*
X131647819Y-61678152D01*
X131838295Y-61678152D01*
X131933533Y-61725771D01*
X131981152Y-61773390D01*
X132028771Y-61868628D01*
X132028771Y-62059104D01*
X131981152Y-62154342D01*
X131933533Y-62201961D01*
X131838295Y-62249580D01*
X131647819Y-62249580D01*
X131552580Y-62201961D01*
X131504961Y-62154342D01*
X131457342Y-62059104D01*
X131457342Y-61868628D01*
X131504961Y-61773390D01*
X131552580Y-61725771D01*
X131647819Y-61678152D01*
X131028771Y-61868628D02*
X130266866Y-61868628D01*
X129266866Y-62249580D02*
X129838295Y-62249580D01*
X129552580Y-62249580D02*
X129552580Y-61249580D01*
X129647819Y-61392438D01*
X129743057Y-61487676D01*
X129838295Y-61535295D01*
X128647819Y-61249580D02*
X128552580Y-61249580D01*
X128457342Y-61297200D01*
X128409723Y-61344819D01*
X128362104Y-61440057D01*
X128314485Y-61630533D01*
X128314485Y-61868628D01*
X128362104Y-62059104D01*
X128409723Y-62154342D01*
X128457342Y-62201961D01*
X128552580Y-62249580D01*
X128647819Y-62249580D01*
X128743057Y-62201961D01*
X128790676Y-62154342D01*
X128838295Y-62059104D01*
X128885914Y-61868628D01*
X128885914Y-61630533D01*
X128838295Y-61440057D01*
X128790676Y-61344819D01*
X128743057Y-61297200D01*
X128647819Y-61249580D01*
X127885914Y-61868628D02*
X127124009Y-61868628D01*
X126695438Y-61344819D02*
X126647819Y-61297200D01*
X126552580Y-61249580D01*
X126314485Y-61249580D01*
X126219247Y-61297200D01*
X126171628Y-61344819D01*
X126124009Y-61440057D01*
X126124009Y-61535295D01*
X126171628Y-61678152D01*
X126743057Y-62249580D01*
X126124009Y-62249580D01*
X125171628Y-62249580D02*
X125743057Y-62249580D01*
X125457342Y-62249580D02*
X125457342Y-61249580D01*
X125552580Y-61392438D01*
X125647819Y-61487676D01*
X125743057Y-61535295D01*
M02*
