M48
; DRILL file {KiCad (5.1.6)-1} date 08/21/21 15:03:19
; FORMAT={-:-/ absolute / inch / decimal}
; #@! TF.CreationDate,2021-08-21T15:03:19-07:00
; #@! TF.GenerationSoftware,Kicad,Pcbnew,(5.1.6)-1
; #@! TF.FileFunction,Plated,1,2,PTH
FMAT,2
INCH
T1C0.0157
T2C0.0236
T3C0.0315
T4C0.0354
T5C0.0394
T6C0.0433
T7C0.0472
T8C0.0709
T9C0.1260
T10C0.3120
%
G90
G05
T1
X2.377Y-3.086
X2.404Y-4.425
X2.444Y-4.18
X2.467Y-4.262
X2.4858Y-3.9628
X2.498Y-4.585
X2.508Y-2.946
X2.559Y-4.184
X2.672Y-4.481
X2.678Y-2.842
X2.784Y-5.298
X2.817Y-4.637
X2.819Y-5.484
X3.027Y-3.497
X3.113Y-5.476
X3.251Y-2.694
X3.253Y-2.59
X3.255Y-2.792
X3.305Y-3.499
X3.405Y-3.359
X3.479Y-5.448
X3.636Y-4.363
X3.844Y-3.984
X4.106Y-3.499
X4.232Y-4.905
X4.25Y-3.951
X4.29Y-5.248
X4.348Y-2.588
X4.401Y-3.983
X4.402Y-4.042
X4.408Y-3.499
X4.421Y-4.625
X4.424Y-2.416
X4.452Y-3.254
X4.49Y-3.297
X4.49Y-3.816
X4.523Y-3.039
X4.571Y-4.909
X4.599Y-3.772
X4.607Y-4.705
X4.609Y-3.906
X4.7Y-5.047
X4.703Y-4.052
X4.707Y-4.743
X4.709Y-3.75
X4.709Y-4.27
X4.711Y-3.548
X4.711Y-3.65
X4.713Y-3.442
X4.713Y-4.359
X4.713Y-4.455
X4.719Y-4.553
X4.723Y-4.645
X4.975Y-4.445
X4.983Y-4.253
X4.9835Y-4.6705
X4.985Y-4.351
X5.0114Y-4.5795
X5.0429Y-3.2441
X5.05Y-3.3559
X5.4705Y-2.985
X5.5008Y-3.2472
X5.5079Y-3.3488
X5.5185Y-2.9528
X5.5898Y-2.8299
X5.6339Y-2.874
X5.6583Y-3.3173
X5.6728Y-2.913
X5.7004Y-3.1461
X5.7421Y-3.2193
X7.515Y-3.7193
X7.5709Y-3.4783
X7.7701Y-3.737
T2
X5.141Y-4.501
X6.5Y-4.16
X7.25Y-5.4051
X7.41Y-4.04
T3
X6.7Y-2.4
X7.1Y-2.4
X5.849Y-4.0
X6.249Y-4.0
X2.9142Y-3.6
X3.3142Y-3.6
X3.709Y-4.612
X4.109Y-4.612
X5.849Y-2.4
X6.249Y-2.4
X3.706Y-3.983
X4.106Y-3.983
X2.911Y-4.833
X3.311Y-4.833
X6.7Y-2.6
X7.1Y-2.6
X2.9142Y-3.4
X3.3142Y-3.4
X2.9142Y-5.2
X3.3142Y-5.2
X6.15Y-4.35
X6.3469Y-4.35
X5.849Y-3.2
X6.249Y-3.2
X3.711Y-3.597
X4.111Y-3.597
X2.911Y-5.389
X3.311Y-5.389
X3.8047Y-5.5999
X4.1Y-5.655
X3.708Y-4.139
X4.108Y-4.139
X6.7Y-4.0
X7.1Y-4.0
X6.7Y-3.0
X7.1Y-3.0
X5.849Y-2.6
X6.249Y-2.6
X5.849Y-2.8
X6.249Y-2.8
X2.9142Y-4.4
X3.3142Y-4.4
X2.91Y-4.669
X3.31Y-4.669
X3.774Y-3.204
X3.774Y-3.4009
X5.197Y-5.641
X5.597Y-5.641
X5.35Y-5.4
X5.4484Y-5.4
X6.7Y-3.8
X7.1Y-3.8
X7.4169Y-5.5516
X7.4169Y-5.65
X2.9142Y-3.8
X3.3142Y-3.8
X5.849Y-3.8
X6.249Y-3.8
X3.711Y-4.767
X4.111Y-4.767
X5.849Y-3.0
X6.249Y-3.0
X2.912Y-5.562
X3.312Y-5.562
X3.712Y-4.457
X4.112Y-4.457
X3.711Y-4.302
X4.111Y-4.302
X6.7Y-3.2
X7.1Y-3.2
X6.7Y-3.4
X7.1Y-3.4
X7.7Y-4.7551
X7.7Y-4.8535
X2.9142Y-3.2
X3.3142Y-3.2
X5.849Y-3.6
X6.249Y-3.6
X2.9142Y-4.0
X3.3142Y-4.0
X5.849Y-2.2
X6.249Y-2.2
X6.8Y-5.2551
X6.8Y-5.452
X3.723Y-4.944
X3.723Y-5.344
X5.1Y-5.3
X5.1984Y-5.3
X6.7Y-2.8
X7.1Y-2.8
X5.849Y-3.4
X6.249Y-3.4
X3.707Y-3.755
X4.107Y-3.755
X3.883Y-4.942
X3.883Y-5.342
X6.7Y-2.2
X7.1Y-2.2
X2.9142Y-3.0
X3.3142Y-3.0
X6.7Y-3.6
X7.1Y-3.6
X6.25Y-4.75
X6.25Y-4.8484
X7.6Y-4.3551
X7.7969Y-4.3551
X2.9142Y-5.0
X3.3142Y-5.0
X2.9142Y-4.2
X3.3142Y-4.2
X4.2Y-5.3
X4.2Y-5.3984
T4
X3.536Y-5.1533
X3.536Y-5.2556
X3.536Y-5.358
X2.717Y-2.9843
X2.717Y-3.0866
X2.717Y-3.189
X7.291Y-2.981
X7.291Y-3.0834
X7.291Y-3.1857
X7.3Y-2.2
X7.3Y-2.3024
X7.3Y-2.4047
X6.449Y-3.8
X6.449Y-3.9024
X6.449Y-4.0047
X2.7142Y-4.0953
X2.7142Y-4.1976
X2.7142Y-4.3
X2.715Y-3.3663
X2.715Y-3.4686
X2.715Y-3.571
X7.301Y-2.582
X7.301Y-2.6844
X7.301Y-2.7867
X6.449Y-2.6
X6.449Y-2.7024
X6.449Y-2.8047
X2.27Y-4.873
X2.27Y-4.973
X6.449Y-3.0
X6.449Y-3.1024
X6.449Y-3.2047
X2.7142Y-4.8953
X2.7142Y-4.9976
X2.7142Y-5.1
X3.533Y-3.5623
X3.533Y-3.6646
X3.533Y-3.767
X6.432Y-2.181
X6.432Y-2.2834
X6.432Y-2.3857
X3.544Y-3.9933
X3.544Y-4.0956
X3.544Y-4.198
X2.714Y-5.239
X2.714Y-5.339
X2.714Y-5.439
X2.715Y-3.7433
X2.715Y-3.8456
X2.715Y-3.948
X2.714Y-4.581
X2.714Y-4.681
X2.714Y-4.781
X7.295Y-3.777
X7.295Y-3.8794
X7.295Y-3.9817
X3.537Y-4.6543
X3.537Y-4.7566
X3.537Y-4.859
X3.541Y-4.329
X3.541Y-4.429
X3.541Y-4.529
X7.299Y-3.378
X7.299Y-3.4804
X7.299Y-3.5827
X6.449Y-3.4
X6.449Y-3.5024
X6.449Y-3.6047
T5
X3.768Y-2.34
X3.768Y-2.44
X3.768Y-2.54
X3.768Y-2.64
X3.768Y-2.74
X3.768Y-2.84
X3.768Y-2.94
X3.768Y-3.04
X4.268Y-2.34
X4.268Y-2.44
X4.268Y-2.54
X4.268Y-2.64
X4.268Y-2.74
X4.268Y-2.84
X4.268Y-2.94
X4.268Y-3.04
X7.725Y-2.9
X7.725Y-3.0091
X7.725Y-3.1181
X7.725Y-3.2272
X7.725Y-3.3362
X7.725Y-3.4453
X7.725Y-3.5543
X7.725Y-3.6634
X7.8368Y-2.9545
X7.8368Y-3.0636
X7.8368Y-3.1726
X7.8368Y-3.2817
X7.8368Y-3.3907
X7.8368Y-3.4998
X7.8368Y-3.6089
X4.301Y-4.625
X4.301Y-4.725
X4.301Y-4.825
X4.8Y-3.1
X4.8Y-3.2
X4.8Y-3.3
X4.8Y-3.4
X4.8Y-3.5
X4.8Y-3.6
X4.8Y-3.7
X4.8Y-3.8
X4.8Y-3.9
X4.8Y-4.0
X4.8Y-4.1
X4.8Y-4.2
X4.8Y-4.3
X4.8Y-4.4
X4.8Y-4.5
X4.8Y-4.6
X4.8Y-4.7
X4.8Y-4.8
X4.9Y-3.1
X4.9Y-3.2
X4.9Y-3.3
X4.9Y-3.4
X4.9Y-3.5
X4.9Y-3.6
X4.9Y-3.7
X4.9Y-3.8
X4.9Y-3.9
X4.9Y-4.0
X4.9Y-4.1
X4.9Y-4.2
X4.9Y-4.3
X4.9Y-4.4
X4.9Y-4.5
X4.9Y-4.6
X4.9Y-4.7
X4.9Y-4.8
X2.1582Y-3.5811
X2.1582Y-3.6902
X2.1582Y-3.7993
X2.1582Y-3.9083
X2.1582Y-4.0174
X2.1582Y-4.1264
X2.1582Y-4.2355
X2.27Y-3.5266
X2.27Y-3.6357
X2.27Y-3.7447
X2.27Y-3.8538
X2.27Y-3.9628
X2.27Y-4.0719
X2.27Y-4.1809
X2.27Y-4.29
X4.3Y-4.194
X4.3Y-4.294
X4.3Y-4.394
X4.654Y-4.203
X4.046Y-4.97
X4.046Y-5.07
X4.046Y-5.17
T6
X5.379Y-5.113
X5.479Y-5.113
X5.579Y-5.113
X4.4Y-5.3
X4.7Y-5.3
X5.35Y-5.25
X5.65Y-5.25
X4.9Y-5.3
X4.9Y-5.6
X4.4Y-5.5
X4.7Y-5.5
X5.95Y-4.35
X5.95Y-5.35
X7.4Y-4.3551
X7.4Y-5.3551
X4.4Y-5.7
X4.7Y-5.7
X7.1Y-5.2551
X7.1Y-5.5551
X6.825Y-5.103
X6.925Y-5.103
X7.025Y-5.103
T7
X2.2Y-5.1441
X2.2Y-5.4
X2.3772Y-5.1441
X2.3772Y-5.4
X2.2Y-2.3256
X2.2Y-2.5815
X2.3772Y-2.3256
X2.3772Y-2.5815
T8
X2.4Y-5.71
X2.6165Y-5.71
T9
X7.7809Y-2.6262
X7.7809Y-3.9372
X2.2141Y-3.2528
X2.2141Y-4.5638
T10
X6.308Y-5.563
T0
M30
