%TF.GenerationSoftware,KiCad,Pcbnew,(5.1.6)-1*%
%TF.CreationDate,2021-08-21T15:03:11-07:00*%
%TF.ProjectId,BPEM488CWaux,4250454d-3438-4384-9357-6175782e6b69,rev?*%
%TF.SameCoordinates,Original*%
%TF.FileFunction,Soldermask,Top*%
%TF.FilePolarity,Negative*%
%FSLAX46Y46*%
G04 Gerber Fmt 4.6, Leading zero omitted, Abs format (unit mm)*
G04 Created by KiCad (PCBNEW (5.1.6)-1) date 2021-08-21 15:03:11*
%MOMM*%
%LPD*%
G01*
G04 APERTURE LIST*
%ADD10O,1.700000X1.700000*%
%ADD11C,1.700000*%
%ADD12C,1.900000*%
%ADD13R,1.900000X1.900000*%
%ADD14O,2.005000X2.100000*%
%ADD15R,2.005000X2.100000*%
%ADD16O,3.600000X3.600000*%
%ADD17R,1.600000X1.600000*%
%ADD18C,1.600000*%
%ADD19O,1.800000X1.800000*%
%ADD20C,1.800000*%
%ADD21R,1.800000X1.800000*%
%ADD22R,1.700000X1.700000*%
%ADD23C,4.100000*%
%ADD24C,8.228000*%
%ADD25R,2.300000X2.300000*%
%ADD26O,2.300000X2.300000*%
%ADD27O,3.800000X2.800000*%
%ADD28C,3.100000*%
%ADD29C,2.300000*%
%ADD30C,0.254000*%
G04 APERTURE END LIST*
D10*
%TO.C,R15*%
X132003800Y-143281400D03*
D11*
X142163800Y-143281400D03*
%TD*%
D12*
%TO.C,D7*%
X57658000Y-123774200D03*
D13*
X57658000Y-126314200D03*
%TD*%
D14*
%TO.C,U1*%
X141706600Y-129870200D03*
X139166600Y-129870200D03*
D15*
X136626600Y-129870200D03*
D16*
X139166600Y-113210200D03*
%TD*%
D17*
%TO.C,Q25*%
X185420000Y-55880000D03*
D18*
X185420000Y-61080000D03*
X185420000Y-58480000D03*
%TD*%
D17*
%TO.C,Q24*%
X185445400Y-65582800D03*
D18*
X185445400Y-70782800D03*
X185445400Y-68182800D03*
%TD*%
D17*
%TO.C,Q23*%
X185191400Y-75717400D03*
D18*
X185191400Y-80917400D03*
X185191400Y-78317400D03*
%TD*%
D17*
%TO.C,Q22*%
X185394600Y-85801200D03*
D18*
X185394600Y-91001200D03*
X185394600Y-88401200D03*
%TD*%
D17*
%TO.C,Q21*%
X185293000Y-95935800D03*
D18*
X185293000Y-101135800D03*
X185293000Y-98535800D03*
%TD*%
D17*
%TO.C,Q18*%
X90017600Y-106629200D03*
D18*
X90017600Y-101429200D03*
X90017600Y-104029200D03*
%TD*%
D17*
%TO.C,Q17*%
X163804600Y-96520000D03*
D18*
X163804600Y-101720000D03*
X163804600Y-99120000D03*
%TD*%
D17*
%TO.C,Q16*%
X163804600Y-86360000D03*
D18*
X163804600Y-91560000D03*
X163804600Y-88960000D03*
%TD*%
D17*
%TO.C,Q15*%
X163804600Y-76200000D03*
D18*
X163804600Y-81400000D03*
X163804600Y-78800000D03*
%TD*%
D17*
%TO.C,Q14*%
X163804600Y-66040000D03*
D18*
X163804600Y-71240000D03*
X163804600Y-68640000D03*
%TD*%
D17*
%TO.C,Q13*%
X163372800Y-55397400D03*
D18*
X163372800Y-60597400D03*
X163372800Y-57997400D03*
%TD*%
D17*
%TO.C,Q12*%
X89941400Y-112496600D03*
D18*
X89941400Y-109956600D03*
X89941400Y-115036600D03*
%TD*%
D17*
%TO.C,Q11*%
X89814400Y-136093200D03*
D18*
X89814400Y-130893200D03*
X89814400Y-133493200D03*
%TD*%
D17*
%TO.C,Q10*%
X68935600Y-135610600D03*
D18*
X68935600Y-133070600D03*
X68935600Y-138150600D03*
%TD*%
D17*
%TO.C,Q9*%
X89839800Y-123418600D03*
D18*
X89839800Y-118218600D03*
X89839800Y-120818600D03*
%TD*%
D17*
%TO.C,Q7*%
X68940680Y-129540000D03*
D18*
X68940680Y-124340000D03*
X68940680Y-126940000D03*
%TD*%
D17*
%TO.C,Q6*%
X89738200Y-95681800D03*
D18*
X89738200Y-90481800D03*
X89738200Y-93081800D03*
%TD*%
D17*
%TO.C,Q5*%
X68935600Y-118897400D03*
D18*
X68935600Y-116357400D03*
X68935600Y-121437400D03*
%TD*%
D17*
%TO.C,Q4*%
X68940680Y-109220000D03*
D18*
X68940680Y-104020000D03*
X68940680Y-106620000D03*
%TD*%
D17*
%TO.C,Q3*%
X68961000Y-100279200D03*
D18*
X68961000Y-95079200D03*
X68961000Y-97679200D03*
%TD*%
D17*
%TO.C,Q2*%
X68961000Y-90703400D03*
D18*
X68961000Y-85503400D03*
X68961000Y-88103400D03*
%TD*%
D17*
%TO.C,Q1*%
X69011800Y-81000600D03*
D18*
X69011800Y-75800600D03*
X69011800Y-78400600D03*
%TD*%
D19*
%TO.C,U3*%
X95707200Y-74676000D03*
X95707200Y-69596000D03*
D20*
X95707200Y-77216000D03*
D19*
X95707200Y-72136000D03*
X95707200Y-67056000D03*
X95707200Y-59436000D03*
X95707200Y-64516000D03*
X95707200Y-61976000D03*
X108407200Y-59436000D03*
X108407200Y-61976000D03*
X108407200Y-64516000D03*
X108407200Y-67056000D03*
X108407200Y-69596000D03*
X108407200Y-72136000D03*
X108407200Y-74676000D03*
D21*
X108407200Y-77216000D03*
%TD*%
D14*
%TO.C,U2*%
X178435000Y-129616200D03*
X175895000Y-129616200D03*
D15*
X173355000Y-129616200D03*
D16*
X175895000Y-112956200D03*
%TD*%
D21*
%TO.C,TP1*%
X118211600Y-106756200D03*
%TD*%
D10*
%TO.C,R36*%
X104343200Y-105130600D03*
D11*
X94183200Y-105130600D03*
%TD*%
D10*
%TO.C,R35*%
X104292400Y-101168200D03*
D11*
X94132400Y-101168200D03*
%TD*%
D10*
%TO.C,R24*%
X104444800Y-113207800D03*
D11*
X94284800Y-113207800D03*
%TD*%
D10*
%TO.C,R23*%
X94259400Y-109270800D03*
D11*
X104419400Y-109270800D03*
%TD*%
D10*
%TO.C,R22*%
X98628200Y-125526800D03*
D11*
X98628200Y-135686800D03*
%TD*%
D10*
%TO.C,R21*%
X94564200Y-125577600D03*
D11*
X94564200Y-135737600D03*
%TD*%
D10*
%TO.C,R20*%
X84124800Y-141274800D03*
D11*
X73964800Y-141274800D03*
%TD*%
D10*
%TO.C,R19*%
X73939400Y-136880600D03*
D11*
X84099400Y-136880600D03*
%TD*%
D10*
%TO.C,R18*%
X84074000Y-118592600D03*
D11*
X73914000Y-118592600D03*
%TD*%
D10*
%TO.C,R17*%
X73939400Y-122758200D03*
D11*
X84099400Y-122758200D03*
%TD*%
D19*
%TO.C,J7*%
X109220000Y-111607600D03*
X109220000Y-109067600D03*
D21*
X109220000Y-106527600D03*
%TD*%
D19*
%TO.C,J6*%
X102768400Y-131318000D03*
X102768400Y-128778000D03*
D21*
X102768400Y-126238000D03*
%TD*%
D19*
%TO.C,J5*%
X109245400Y-122555000D03*
X109245400Y-120015000D03*
D21*
X109245400Y-117475000D03*
%TD*%
D11*
%TO.C,C10*%
X95859600Y-86381600D03*
D22*
X95859600Y-81381600D03*
%TD*%
D23*
%TO.C,J4*%
X197635000Y-66705000D03*
X197635000Y-100005000D03*
D11*
X199055000Y-91665000D03*
X199055000Y-88895000D03*
X199055000Y-86125000D03*
X199055000Y-83355000D03*
X199055000Y-80585000D03*
X199055000Y-77815000D03*
X199055000Y-75045000D03*
X196215000Y-93050000D03*
X196215000Y-90280000D03*
X196215000Y-87510000D03*
X196215000Y-84740000D03*
X196215000Y-81970000D03*
X196215000Y-79200000D03*
X196215000Y-76430000D03*
D22*
X196215000Y-73660000D03*
%TD*%
D23*
%TO.C,J3*%
X56238000Y-115921000D03*
X56238000Y-82621000D03*
D11*
X54818000Y-90961000D03*
X54818000Y-93731000D03*
X54818000Y-96501000D03*
X54818000Y-99271000D03*
X54818000Y-102041000D03*
X54818000Y-104811000D03*
X54818000Y-107581000D03*
X57658000Y-89576000D03*
X57658000Y-92346000D03*
X57658000Y-95116000D03*
X57658000Y-97886000D03*
X57658000Y-100656000D03*
X57658000Y-103426000D03*
X57658000Y-106196000D03*
D22*
X57658000Y-108966000D03*
%TD*%
D24*
%TO.C,REF\u002A\u002A*%
X160223200Y-141300200D03*
%TD*%
D12*
%TO.C,RV1*%
X96640000Y-142237000D03*
X104140000Y-143637000D03*
%TD*%
D11*
%TO.C,C1*%
X106680000Y-134620000D03*
X106680000Y-137120000D03*
%TD*%
%TO.C,C3*%
X172720000Y-138479540D03*
D22*
X172720000Y-133479540D03*
%TD*%
D11*
%TO.C,C6*%
X158750000Y-123150000D03*
X158750000Y-120650000D03*
%TD*%
%TO.C,C7*%
X195580000Y-120779540D03*
X195580000Y-123279540D03*
%TD*%
%TO.C,C8*%
X161210000Y-110490000D03*
D22*
X156210000Y-110490000D03*
%TD*%
%TO.C,C9*%
X193040000Y-110619540D03*
D11*
X198040000Y-110619540D03*
%TD*%
D25*
%TO.C,D1*%
X111760000Y-139700000D03*
D26*
X119380000Y-139700000D03*
%TD*%
%TO.C,D2*%
X119380000Y-144780000D03*
D25*
X111760000Y-144780000D03*
%TD*%
%TO.C,D3*%
X119380000Y-134620000D03*
D26*
X111760000Y-134620000D03*
%TD*%
%TO.C,D4*%
X124460000Y-142240000D03*
D25*
X124460000Y-134620000D03*
%TD*%
D26*
%TO.C,D5*%
X135890000Y-133350000D03*
D25*
X143510000Y-133350000D03*
%TD*%
%TO.C,D6*%
X180340000Y-141099540D03*
D26*
X180340000Y-133479540D03*
%TD*%
%TO.C,J1*%
G36*
G01*
X62600740Y-146434000D02*
X59319260Y-146434000D01*
G75*
G02*
X59060000Y-146174740I0J259260D01*
G01*
X59060000Y-143893260D01*
G75*
G02*
X59319260Y-143634000I259260J0D01*
G01*
X62600740Y-143634000D01*
G75*
G02*
X62860000Y-143893260I0J-259260D01*
G01*
X62860000Y-146174740D01*
G75*
G02*
X62600740Y-146434000I-259260J0D01*
G01*
G37*
D27*
X66460000Y-145034000D03*
D28*
X53660000Y-145034000D03*
%TD*%
D29*
%TO.C,L1*%
X151130000Y-135890000D03*
D26*
X151130000Y-110490000D03*
%TD*%
%TO.C,L2*%
X187960000Y-110619540D03*
D29*
X187960000Y-136019540D03*
%TD*%
D10*
%TO.C,R1*%
X84180680Y-76200000D03*
D11*
X74020680Y-76200000D03*
%TD*%
%TO.C,R2*%
X74020680Y-81280000D03*
D10*
X84180680Y-81280000D03*
%TD*%
%TO.C,R3*%
X84180680Y-86360000D03*
D11*
X74020680Y-86360000D03*
%TD*%
%TO.C,R4*%
X74020680Y-91440000D03*
D10*
X84180680Y-91440000D03*
%TD*%
D11*
%TO.C,R5*%
X74020680Y-96520000D03*
D10*
X84180680Y-96520000D03*
%TD*%
D11*
%TO.C,R6*%
X74020680Y-101600000D03*
D10*
X84180680Y-101600000D03*
%TD*%
%TO.C,R7*%
X84180680Y-106680000D03*
D11*
X74020680Y-106680000D03*
%TD*%
D10*
%TO.C,R8*%
X84180680Y-111760000D03*
D11*
X74020680Y-111760000D03*
%TD*%
%TO.C,R9*%
X94208600Y-117144800D03*
D10*
X104368600Y-117144800D03*
%TD*%
D11*
%TO.C,R10*%
X94259400Y-121081800D03*
D10*
X104419400Y-121081800D03*
%TD*%
%TO.C,R11*%
X104419400Y-91363800D03*
D11*
X94259400Y-91363800D03*
%TD*%
D10*
%TO.C,R12*%
X104317800Y-95377000D03*
D11*
X94157800Y-95377000D03*
%TD*%
D10*
%TO.C,R13*%
X84180680Y-127000000D03*
D11*
X74020680Y-127000000D03*
%TD*%
%TO.C,R14*%
X74020680Y-132080000D03*
D10*
X84180680Y-132080000D03*
%TD*%
D11*
%TO.C,R25*%
X158724600Y-55880000D03*
D10*
X148564600Y-55880000D03*
%TD*%
D11*
%TO.C,R26*%
X158724600Y-60960000D03*
D10*
X148564600Y-60960000D03*
%TD*%
D11*
%TO.C,R27*%
X158724600Y-66040000D03*
D10*
X148564600Y-66040000D03*
%TD*%
%TO.C,R28*%
X148564600Y-71120000D03*
D11*
X158724600Y-71120000D03*
%TD*%
D10*
%TO.C,R29*%
X148564600Y-76200000D03*
D11*
X158724600Y-76200000D03*
%TD*%
%TO.C,R30*%
X158724600Y-81280000D03*
D10*
X148564600Y-81280000D03*
%TD*%
D11*
%TO.C,R31*%
X158724600Y-86360000D03*
D10*
X148564600Y-86360000D03*
%TD*%
%TO.C,R32*%
X148564600Y-91440000D03*
D11*
X158724600Y-91440000D03*
%TD*%
%TO.C,R33*%
X158724600Y-96520000D03*
D10*
X148564600Y-96520000D03*
%TD*%
D11*
%TO.C,R34*%
X158724600Y-101600000D03*
D10*
X148564600Y-101600000D03*
%TD*%
%TO.C,R41*%
X170180000Y-96520000D03*
D11*
X180340000Y-96520000D03*
%TD*%
D10*
%TO.C,R42*%
X170180000Y-101600000D03*
D11*
X180340000Y-101600000D03*
%TD*%
D10*
%TO.C,R43*%
X170180000Y-86360000D03*
D11*
X180340000Y-86360000D03*
%TD*%
%TO.C,R44*%
X180340000Y-91440000D03*
D10*
X170180000Y-91440000D03*
%TD*%
D11*
%TO.C,R45*%
X180340000Y-76200000D03*
D10*
X170180000Y-76200000D03*
%TD*%
%TO.C,R46*%
X170180000Y-81280000D03*
D11*
X180340000Y-81280000D03*
%TD*%
D10*
%TO.C,R47*%
X170180000Y-66040000D03*
D11*
X180340000Y-66040000D03*
%TD*%
%TO.C,R48*%
X180340000Y-71120000D03*
D10*
X170180000Y-71120000D03*
%TD*%
%TO.C,R49*%
X170180000Y-55880000D03*
D11*
X180340000Y-55880000D03*
%TD*%
D10*
%TO.C,R50*%
X170180000Y-60960000D03*
D11*
X180340000Y-60960000D03*
%TD*%
D29*
%TO.C,S1*%
X60380000Y-65570100D03*
X60380000Y-59070100D03*
X55880000Y-59070100D03*
D25*
X55880000Y-65570100D03*
%TD*%
%TO.C,S2*%
X55880000Y-137160000D03*
D29*
X55880000Y-130660000D03*
X60380000Y-130660000D03*
X60380000Y-137160000D03*
%TD*%
D21*
%TO.C,J2*%
X124460000Y-78740000D03*
D19*
X121920000Y-78740000D03*
X124460000Y-81280000D03*
X121920000Y-81280000D03*
X124460000Y-83820000D03*
X121920000Y-83820000D03*
X124460000Y-86360000D03*
X121920000Y-86360000D03*
X124460000Y-88900000D03*
X121920000Y-88900000D03*
X124460000Y-91440000D03*
X121920000Y-91440000D03*
X124460000Y-93980000D03*
X121920000Y-93980000D03*
X124460000Y-96520000D03*
X121920000Y-96520000D03*
X124460000Y-99060000D03*
X121920000Y-99060000D03*
X124460000Y-101600000D03*
X121920000Y-101600000D03*
X124460000Y-104140000D03*
X121920000Y-104140000D03*
X124460000Y-106680000D03*
X121920000Y-106680000D03*
X124460000Y-109220000D03*
X121920000Y-109220000D03*
X124460000Y-111760000D03*
X121920000Y-111760000D03*
X124460000Y-114300000D03*
X121920000Y-114300000D03*
X124460000Y-116840000D03*
X121920000Y-116840000D03*
X124460000Y-119380000D03*
X121920000Y-119380000D03*
X124460000Y-121920000D03*
X121920000Y-121920000D03*
%TD*%
D11*
%TO.C,C2*%
X132040000Y-134620000D03*
X129540000Y-134620000D03*
%TD*%
%TO.C,C4*%
X135890000Y-137160000D03*
X138390000Y-137160000D03*
%TD*%
%TO.C,C5*%
X188390000Y-141010000D03*
X188390000Y-143510000D03*
%TD*%
D30*
G36*
X144173000Y-126293000D02*
G01*
X133937000Y-126293000D01*
X133937000Y-110487000D01*
X133940000Y-110487000D01*
X133964776Y-110484560D01*
X133988601Y-110477333D01*
X134010557Y-110465597D01*
X134029803Y-110449803D01*
X134092606Y-110387000D01*
X144173000Y-110387000D01*
X144173000Y-126293000D01*
G37*
X144173000Y-126293000D02*
X133937000Y-126293000D01*
X133937000Y-110487000D01*
X133940000Y-110487000D01*
X133964776Y-110484560D01*
X133988601Y-110477333D01*
X134010557Y-110465597D01*
X134029803Y-110449803D01*
X134092606Y-110387000D01*
X144173000Y-110387000D01*
X144173000Y-126293000D01*
G36*
X181003000Y-126263000D02*
G01*
X170797000Y-126263000D01*
X170797000Y-110417000D01*
X181003000Y-110417000D01*
X181003000Y-126263000D01*
G37*
X181003000Y-126263000D02*
X170797000Y-126263000D01*
X170797000Y-110417000D01*
X181003000Y-110417000D01*
X181003000Y-126263000D01*
M02*
