%TF.GenerationSoftware,KiCad,Pcbnew,(5.1.6)-1*%
%TF.CreationDate,2021-08-21T14:57:10-07:00*%
%TF.ProjectId,BPEM488CW,4250454d-3438-4384-9357-2e6b69636164,rev?*%
%TF.SameCoordinates,Original*%
%TF.FileFunction,Soldermask,Top*%
%TF.FilePolarity,Negative*%
%FSLAX46Y46*%
G04 Gerber Fmt 4.6, Leading zero omitted, Abs format (unit mm)*
G04 Created by KiCad (PCBNEW (5.1.6)-1) date 2021-08-21 14:57:10*
%MOMM*%
%LPD*%
G01*
G04 APERTURE LIST*
%ADD10O,1.700000X1.700000*%
%ADD11C,1.700000*%
%ADD12C,1.900000*%
%ADD13R,1.900000X1.900000*%
%ADD14R,1.700000X1.700000*%
%ADD15O,1.800000X1.800000*%
%ADD16R,1.800000X1.800000*%
%ADD17R,2.132000X0.481000*%
%ADD18R,0.481000X2.132000*%
%ADD19R,1.600000X1.600000*%
%ADD20C,1.600000*%
%ADD21C,4.100000*%
%ADD22R,1.624000X1.624000*%
%ADD23C,1.624000*%
%ADD24C,3.148000*%
G04 APERTURE END LIST*
D10*
%TO.C,R229*%
X88239600Y-118211600D03*
D11*
X78079600Y-118211600D03*
%TD*%
D12*
%TO.C,D2*%
X67462400Y-54102000D03*
D13*
X67462400Y-56642000D03*
%TD*%
D12*
%TO.C,D1*%
X67411600Y-59385200D03*
D13*
X67411600Y-61925200D03*
%TD*%
D11*
%TO.C,U201*%
X165836600Y-145389600D03*
X165836600Y-142849600D03*
X165836600Y-140309600D03*
X165836600Y-137769600D03*
X179806600Y-137769600D03*
X179806600Y-140309600D03*
X179806600Y-142849600D03*
D14*
X179806600Y-145389600D03*
%TD*%
D15*
%TO.C,U2*%
X206705200Y-55905400D03*
X206705200Y-58445400D03*
X206705200Y-60985400D03*
X206705200Y-63525400D03*
X206705200Y-66065400D03*
D16*
X206705200Y-68605400D03*
%TD*%
%TO.C,TP2*%
X205232000Y-87782400D03*
%TD*%
%TO.C,TP1*%
X200837800Y-72517000D03*
%TD*%
D17*
%TO.C,U1*%
X196583300Y-78371700D03*
X196583300Y-79019400D03*
X196583300Y-79667100D03*
X196583300Y-80314800D03*
X196583300Y-80962500D03*
X196583300Y-81622900D03*
X196583300Y-82270600D03*
X196583300Y-82918300D03*
X196583300Y-83566000D03*
X196583300Y-84213700D03*
X196583300Y-84874100D03*
X196583300Y-85521800D03*
X196583300Y-86169500D03*
X196583300Y-86817200D03*
X196583300Y-87477600D03*
X196583300Y-88125300D03*
X196583300Y-88773000D03*
X196583300Y-89420700D03*
X196583300Y-90081100D03*
X196583300Y-90728800D03*
X196583300Y-91376500D03*
X196583300Y-92024200D03*
X196583300Y-92671900D03*
X196583300Y-93332300D03*
X196583300Y-93980000D03*
X196583300Y-94627700D03*
X196583300Y-95275400D03*
X196583300Y-95923100D03*
D18*
X194373500Y-98132900D03*
X193725800Y-98132900D03*
X193078100Y-98132900D03*
X192430400Y-98132900D03*
X191782700Y-98132900D03*
X191122300Y-98132900D03*
X190474600Y-98132900D03*
X189826900Y-98132900D03*
X189179200Y-98132900D03*
X188531500Y-98132900D03*
X187871100Y-98132900D03*
X187223400Y-98132900D03*
X186575700Y-98132900D03*
X185928000Y-98132900D03*
X185267600Y-98132900D03*
X184619900Y-98132900D03*
X183972200Y-98132900D03*
X183324500Y-98132900D03*
X182664100Y-98132900D03*
X182016400Y-98132900D03*
X181368700Y-98132900D03*
X180721000Y-98132900D03*
X180073300Y-98132900D03*
X179412900Y-98132900D03*
X178765200Y-98132900D03*
X178117500Y-98132900D03*
X177469800Y-98132900D03*
X176822100Y-98132900D03*
D17*
X174612300Y-95923100D03*
X174612300Y-95275400D03*
X174612300Y-94627700D03*
X174612300Y-93980000D03*
X174612300Y-93332300D03*
X174612300Y-92671900D03*
X174612300Y-92024200D03*
X174612300Y-91376500D03*
X174612300Y-90728800D03*
X174612300Y-90081100D03*
X174612300Y-89420700D03*
X174612300Y-88773000D03*
X174612300Y-88125300D03*
X174612300Y-87477600D03*
X174612300Y-86817200D03*
X174612300Y-86169500D03*
X174612300Y-85521800D03*
X174612300Y-84874100D03*
X174612300Y-84213700D03*
X174612300Y-83566000D03*
X174612300Y-82918300D03*
X174612300Y-82270600D03*
X174612300Y-81622900D03*
X174612300Y-80962500D03*
X174612300Y-80314800D03*
X174612300Y-79667100D03*
X174612300Y-79019400D03*
X174612300Y-78371700D03*
D18*
X176822100Y-76161900D03*
X177469800Y-76161900D03*
X178117500Y-76161900D03*
X178765200Y-76161900D03*
X179412900Y-76161900D03*
X180073300Y-76161900D03*
X180721000Y-76161900D03*
X181368700Y-76161900D03*
X182016400Y-76161900D03*
X182664100Y-76161900D03*
X183324500Y-76161900D03*
X183972200Y-76161900D03*
X184619900Y-76161900D03*
X185267600Y-76161900D03*
X185928000Y-76161900D03*
X186575700Y-76161900D03*
X187223400Y-76161900D03*
X187871100Y-76161900D03*
X188531500Y-76161900D03*
X189179200Y-76161900D03*
X189826900Y-76161900D03*
X190474600Y-76161900D03*
X191122300Y-76161900D03*
X191782700Y-76161900D03*
X192430400Y-76161900D03*
X193078100Y-76161900D03*
X193725800Y-76161900D03*
X194373500Y-76161900D03*
%TD*%
D19*
%TO.C,Q203*%
X91871800Y-57835800D03*
D20*
X91871800Y-63035800D03*
X91871800Y-60435800D03*
%TD*%
D19*
%TO.C,Q202*%
X119888000Y-58851800D03*
D20*
X119888000Y-64051800D03*
X119888000Y-61451800D03*
%TD*%
D19*
%TO.C,Q201*%
X147574000Y-58089800D03*
D20*
X147574000Y-63289800D03*
X147574000Y-60689800D03*
%TD*%
D11*
%TO.C,R226*%
X95250000Y-64770000D03*
D10*
X105410000Y-64770000D03*
%TD*%
D21*
%TO.C,J202*%
X69065000Y-120976000D03*
X69065000Y-73876000D03*
D11*
X67645000Y-82191000D03*
X67645000Y-84961000D03*
X67645000Y-87731000D03*
X67645000Y-90501000D03*
X67645000Y-93271000D03*
X67645000Y-96041000D03*
X67645000Y-98811000D03*
X67645000Y-101581000D03*
X67645000Y-104351000D03*
X67645000Y-107121000D03*
X67645000Y-109891000D03*
X67645000Y-112661000D03*
X70485000Y-80806000D03*
X70485000Y-83576000D03*
X70485000Y-86346000D03*
X70485000Y-89116000D03*
X70485000Y-91886000D03*
X70485000Y-94656000D03*
X70485000Y-97426000D03*
X70485000Y-100196000D03*
X70485000Y-102966000D03*
X70485000Y-105736000D03*
X70485000Y-108506000D03*
X70485000Y-111276000D03*
D14*
X70485000Y-114046000D03*
%TD*%
D21*
%TO.C,J201*%
X207795000Y-120200000D03*
X207795000Y-145200000D03*
D11*
X209215000Y-136855000D03*
X209215000Y-134085000D03*
X209215000Y-131315000D03*
X209215000Y-128545000D03*
X206375000Y-138240000D03*
X206375000Y-135470000D03*
X206375000Y-132700000D03*
X206375000Y-129930000D03*
D14*
X206375000Y-127160000D03*
%TD*%
D10*
%TO.C,R211*%
X109220000Y-133985000D03*
D11*
X99060000Y-133985000D03*
%TD*%
%TO.C,C232*%
X196215000Y-121920000D03*
X196215000Y-119420000D03*
%TD*%
%TO.C,C231*%
X189230000Y-134660000D03*
X189230000Y-137160000D03*
%TD*%
%TO.C,U205*%
X200660000Y-144780000D03*
X193040000Y-144780000D03*
X200660000Y-127000000D03*
X200660000Y-129540000D03*
X200660000Y-132080000D03*
X200660000Y-134620000D03*
X200660000Y-137160000D03*
X200660000Y-139700000D03*
X200660000Y-142240000D03*
X193040000Y-142240000D03*
X193040000Y-139700000D03*
X193040000Y-137160000D03*
X193040000Y-134620000D03*
X193040000Y-132080000D03*
X193040000Y-129540000D03*
D14*
X193040000Y-127000000D03*
%TD*%
D11*
%TO.C,C303*%
X185320000Y-69368000D03*
X185320000Y-66868000D03*
%TD*%
%TO.C,C307*%
X170355000Y-84613000D03*
D14*
X167855000Y-84613000D03*
%TD*%
D20*
%TO.C,Y301*%
X167855000Y-91163000D03*
X167855000Y-96043000D03*
%TD*%
D11*
%TO.C,U204*%
X87630000Y-59690000D03*
X87630000Y-62230000D03*
X87630000Y-64770000D03*
X80010000Y-64770000D03*
X80010000Y-62230000D03*
D14*
X80010000Y-59690000D03*
%TD*%
D11*
%TO.C,U203*%
X115570000Y-59690000D03*
X115570000Y-62230000D03*
X115570000Y-64770000D03*
X107950000Y-64770000D03*
X107950000Y-62230000D03*
D14*
X107950000Y-59690000D03*
%TD*%
D11*
%TO.C,U202*%
X143510000Y-59817000D03*
X143510000Y-62357000D03*
X143510000Y-64897000D03*
X135890000Y-64897000D03*
X135890000Y-62357000D03*
D14*
X135890000Y-59817000D03*
%TD*%
D10*
%TO.C,R304*%
X199715000Y-102393000D03*
D11*
X199715000Y-112553000D03*
%TD*%
D10*
%TO.C,R303*%
X203525000Y-109543000D03*
D11*
X203525000Y-99383000D03*
%TD*%
D10*
%TO.C,R302*%
X78740000Y-138430000D03*
D11*
X78740000Y-148590000D03*
%TD*%
D10*
%TO.C,R301*%
X81280000Y-138430000D03*
D11*
X81280000Y-148590000D03*
%TD*%
D10*
%TO.C,R225*%
X133350000Y-64770000D03*
D11*
X123190000Y-64770000D03*
%TD*%
D10*
%TO.C,R214*%
X160000000Y-115976000D03*
D11*
X170160000Y-115976000D03*
%TD*%
D10*
%TO.C,R204*%
X109220000Y-87630000D03*
D11*
X99060000Y-87630000D03*
%TD*%
D10*
%TO.C,R203*%
X170160000Y-110896000D03*
D11*
X160000000Y-110896000D03*
%TD*%
D10*
%TO.C,R202*%
X170160000Y-113436000D03*
D11*
X160000000Y-113436000D03*
%TD*%
D10*
%TO.C,R201*%
X169545000Y-133324600D03*
D11*
X179705000Y-133324600D03*
%TD*%
D15*
%TO.C,J302*%
X134620000Y-121920000D03*
X137160000Y-121920000D03*
X134620000Y-119380000D03*
X137160000Y-119380000D03*
X134620000Y-116840000D03*
X137160000Y-116840000D03*
X134620000Y-114300000D03*
X137160000Y-114300000D03*
X134620000Y-111760000D03*
X137160000Y-111760000D03*
X134620000Y-109220000D03*
X137160000Y-109220000D03*
X134620000Y-106680000D03*
X137160000Y-106680000D03*
X134620000Y-104140000D03*
X137160000Y-104140000D03*
X134620000Y-101600000D03*
X137160000Y-101600000D03*
X134620000Y-99060000D03*
X137160000Y-99060000D03*
X134620000Y-96520000D03*
X137160000Y-96520000D03*
X134620000Y-93980000D03*
X137160000Y-93980000D03*
X134620000Y-91440000D03*
X137160000Y-91440000D03*
X134620000Y-88900000D03*
X137160000Y-88900000D03*
X134620000Y-86360000D03*
X137160000Y-86360000D03*
X134620000Y-83820000D03*
X137160000Y-83820000D03*
X134620000Y-81280000D03*
X137160000Y-81280000D03*
X134620000Y-78740000D03*
D16*
X137160000Y-78740000D03*
%TD*%
D22*
%TO.C,J301*%
X70358000Y-145010000D03*
D23*
X70358000Y-142010000D03*
D24*
X66038000Y-147170000D03*
X66038000Y-139850000D03*
D23*
X73358000Y-145010000D03*
X73358000Y-142010000D03*
%TD*%
D11*
%TO.C,C312*%
X212335000Y-109543000D03*
D14*
X207335000Y-109543000D03*
%TD*%
D11*
%TO.C,C311*%
X212335000Y-98113000D03*
D14*
X207335000Y-98113000D03*
%TD*%
D11*
%TO.C,C310*%
X172935000Y-101118000D03*
X172935000Y-98618000D03*
%TD*%
%TO.C,C309*%
X160275000Y-84613000D03*
D14*
X162775000Y-84613000D03*
%TD*%
D11*
%TO.C,C308*%
X72430000Y-135890000D03*
X74930000Y-135890000D03*
%TD*%
%TO.C,C306*%
X200915000Y-82073000D03*
D14*
X203415000Y-82073000D03*
%TD*%
D11*
%TO.C,C305*%
X195005000Y-102433000D03*
X195005000Y-104933000D03*
%TD*%
%TO.C,C304*%
X181855000Y-102433000D03*
X181855000Y-104933000D03*
%TD*%
%TO.C,C302*%
X161505000Y-98543000D03*
X161505000Y-96043000D03*
%TD*%
%TO.C,C301*%
X161505000Y-89733000D03*
X161505000Y-92233000D03*
%TD*%
%TO.C,C218*%
X182880000Y-146010000D03*
X182880000Y-143510000D03*
%TD*%
%TO.C,C217*%
X182880000Y-137835000D03*
X182880000Y-140335000D03*
%TD*%
%TO.C,C212*%
X99100000Y-105410000D03*
X101600000Y-105410000D03*
%TD*%
%TO.C,C211*%
X99100000Y-92710000D03*
X101600000Y-92710000D03*
%TD*%
%TO.C,C210*%
X99100000Y-80010000D03*
X101600000Y-80010000D03*
%TD*%
%TO.C,C209*%
X159940000Y-106136000D03*
X162440000Y-106136000D03*
%TD*%
%TO.C,C204*%
X109180000Y-105410000D03*
X106680000Y-105410000D03*
%TD*%
%TO.C,C203*%
X109180000Y-92710000D03*
X106680000Y-92710000D03*
%TD*%
%TO.C,C202*%
X109180000Y-80010000D03*
X106680000Y-80010000D03*
%TD*%
%TO.C,C201*%
X170120000Y-106070000D03*
X167620000Y-106070000D03*
%TD*%
%TO.C,C205*%
X109180000Y-118110000D03*
X106680000Y-118110000D03*
%TD*%
%TO.C,C206*%
X106680000Y-129540000D03*
X109180000Y-129540000D03*
%TD*%
%TO.C,C207*%
X99120000Y-138800000D03*
X101620000Y-138800000D03*
%TD*%
%TO.C,C208*%
X91440000Y-77650000D03*
X93940000Y-77650000D03*
%TD*%
%TO.C,C213*%
X101600000Y-118110000D03*
X99100000Y-118110000D03*
%TD*%
%TO.C,C214*%
X99060000Y-129540000D03*
X101560000Y-129540000D03*
%TD*%
%TO.C,C216*%
X86360000Y-77880000D03*
X83860000Y-77880000D03*
%TD*%
%TO.C,C219*%
X93940000Y-87630000D03*
X91440000Y-87630000D03*
%TD*%
%TO.C,C220*%
X91440000Y-97790000D03*
X93940000Y-97790000D03*
%TD*%
%TO.C,C221*%
X93940000Y-107950000D03*
X91440000Y-107950000D03*
%TD*%
%TO.C,C222*%
X91440000Y-118110000D03*
X93940000Y-118110000D03*
%TD*%
%TO.C,C223*%
X83860000Y-87630000D03*
X86360000Y-87630000D03*
%TD*%
%TO.C,C224*%
X86360000Y-97790000D03*
X83860000Y-97790000D03*
%TD*%
%TO.C,C225*%
X83860000Y-107950000D03*
X86360000Y-107950000D03*
%TD*%
%TO.C,C230*%
X189230000Y-129540000D03*
X189230000Y-127040000D03*
%TD*%
%TO.C,C233*%
X189230000Y-142280000D03*
X189230000Y-144780000D03*
%TD*%
%TO.C,R205*%
X99060000Y-83820000D03*
D10*
X109220000Y-83820000D03*
%TD*%
%TO.C,R206*%
X109220000Y-100330000D03*
D11*
X99060000Y-100330000D03*
%TD*%
D10*
%TO.C,R207*%
X109220000Y-96520000D03*
D11*
X99060000Y-96520000D03*
%TD*%
D10*
%TO.C,R208*%
X109220000Y-113030000D03*
D11*
X99060000Y-113030000D03*
%TD*%
%TO.C,R209*%
X99060000Y-109220000D03*
D10*
X109220000Y-109220000D03*
%TD*%
D11*
%TO.C,R210*%
X99060000Y-123190000D03*
D10*
X109220000Y-123190000D03*
%TD*%
D11*
%TO.C,R212*%
X83820000Y-133350000D03*
D10*
X93980000Y-133350000D03*
%TD*%
%TO.C,R213*%
X93980000Y-82550000D03*
D11*
X83820000Y-82550000D03*
%TD*%
D10*
%TO.C,R215*%
X93980000Y-92710000D03*
D11*
X83820000Y-92710000D03*
%TD*%
%TO.C,R216*%
X83820000Y-102870000D03*
D10*
X93980000Y-102870000D03*
%TD*%
%TO.C,R217*%
X93980000Y-113030000D03*
D11*
X83820000Y-113030000D03*
%TD*%
%TO.C,R218*%
X83820000Y-123190000D03*
D10*
X93980000Y-123190000D03*
%TD*%
D11*
%TO.C,R219*%
X140970000Y-54610000D03*
D10*
X151130000Y-54610000D03*
%TD*%
%TO.C,R220*%
X123190000Y-54610000D03*
D11*
X113030000Y-54610000D03*
%TD*%
%TO.C,R221*%
X85090000Y-54610000D03*
D10*
X95250000Y-54610000D03*
%TD*%
%TO.C,R222*%
X138430000Y-54610000D03*
D11*
X128270000Y-54610000D03*
%TD*%
%TO.C,R223*%
X100330000Y-54610000D03*
D10*
X110490000Y-54610000D03*
%TD*%
%TO.C,R224*%
X82550000Y-54610000D03*
D11*
X72390000Y-54610000D03*
%TD*%
D10*
%TO.C,R227*%
X77470000Y-64770000D03*
D11*
X67310000Y-64770000D03*
%TD*%
%TO.C,R228*%
X83820000Y-129540000D03*
D10*
X93980000Y-129540000D03*
%TD*%
M02*
